<svg xmlns="http://www.w3.org/2000/svg" width="900" height="560" viewBox="0 0 900 560">
  <rect width="900" height="560" rx="28" fill="#eef4f0"/><text x="44" y="58" font-family="sans-serif" font-size="28" font-weight="700" fill="#173a2d">厂区主要风险分布示意图</text>
  <path d="M55 90H845V515H55Z" fill="#fff" stroke="#92aa9e" stroke-width="3"/><path d="M80 115H820V490H80Z" fill="none" stroke="#cad8d1" stroke-width="2" stroke-dasharray="10 8"/>
  <g font-family="sans-serif" text-anchor="middle"><rect x="105" y="135" width="180" height="115" rx="14" fill="#ffe0dc" stroke="#cf4d42" stroke-width="3"/><text x="195" y="180" font-size="22" font-weight="700" fill="#922f28">提升泵房</text><text x="195" y="214" font-size="16" fill="#7c3a35">中毒窒息 · 淹溺</text>
  <rect x="360" y="130" width="180" height="120" rx="14" fill="#fff0ce" stroke="#dd932d" stroke-width="3"/><text x="450" y="178" font-size="22" font-weight="700" fill="#8b5714">加药间</text><text x="450" y="214" font-size="16" fill="#7b5a2d">腐蚀 · 中毒</text>
  <rect x="620" y="135" width="170" height="115" rx="14" fill="#ffe0dc" stroke="#cf4d42" stroke-width="3"/><text x="705" y="180" font-size="22" font-weight="700" fill="#922f28">配电室</text><text x="705" y="214" font-size="16" fill="#7c3a35">触电 · 火灾</text>
  <rect x="105" y="320" width="180" height="110" rx="14" fill="#fff7c9" stroke="#c7a42b" stroke-width="3"/><text x="195" y="365" font-size="22" font-weight="700" fill="#765f0d">鼓风机房</text><text x="195" y="398" font-size="16" fill="#75662c">噪声 · 机械伤害</text>
  <rect x="360" y="315" width="180" height="120" rx="14" fill="#fff0ce" stroke="#dd932d" stroke-width="3"/><text x="450" y="362" font-size="22" font-weight="700" fill="#8b5714">污泥处理区</text><text x="450" y="397" font-size="16" fill="#7b5a2d">中毒 · 机械伤害</text>
  <rect x="620" y="320" width="170" height="110" rx="14" fill="#dceee4" stroke="#3f8163" stroke-width="3"/><text x="705" y="365" font-size="22" font-weight="700" fill="#275c46">中控室</text><text x="705" y="398" font-size="16" fill="#3f6655">访客接待点</text></g>
  <g font-family="sans-serif" font-size="14"><circle cx="118" cy="472" r="9" fill="#cf4d42"/><text x="135" y="477">高风险</text><circle cx="220" cy="472" r="9" fill="#dd932d"/><text x="237" y="477">较高风险</text><circle cx="343" cy="472" r="9" fill="#c7a42b"/><text x="360" y="477">一般风险</text></g>
</svg>
